<svg width="18" height="18" viewBox="0 0 18 18" fill="none" xmlns="http://www.w3.org/2000/svg">
<path d="M16.5001 12.3333H4.83341C4.6124 12.3333 4.40044 12.2455 4.24416 12.0892C4.08788 11.933 4.00008 11.721 4.00008 11.5C4.00008 11.279 4.08788 11.067 4.24416 10.9107C4.40044 10.7545 4.6124 10.6667 4.83341 10.6667H13.5334C14.0906 10.6667 14.6319 10.4806 15.0712 10.1378C15.5106 9.79513 15.8228 9.31545 15.9584 8.77499L17.3334 3.36666C17.3646 3.24366 17.3673 3.11517 17.3413 2.99097C17.3153 2.86677 17.2613 2.75014 17.1834 2.64999C17.1024 2.54727 16.9983 2.46507 16.8796 2.41006C16.7608 2.35504 16.6308 2.32875 16.5001 2.33332H4.63342C4.46149 1.84703 4.14336 1.42582 3.72264 1.12744C3.30192 0.829055 2.7992 0.668106 2.28341 0.666656H1.50008C1.27907 0.666656 1.06711 0.754454 0.910826 0.910734C0.754545 1.06701 0.666748 1.27898 0.666748 1.49999C0.666748 1.721 0.754545 1.93297 0.910826 2.08925C1.06711 2.24553 1.27907 2.33332 1.50008 2.33332H2.28341C2.47378 2.32778 2.6603 2.3876 2.81192 2.50283C2.96354 2.61807 3.07112 2.78176 3.11675 2.96666L3.16675 3.36666L4.60841 8.99999C3.94537 9.02983 3.32134 9.32183 2.8736 9.81177C2.42586 10.3017 2.19108 10.9494 2.22091 11.6125C2.25075 12.2755 2.54276 12.8996 3.0327 13.3473C3.52264 13.795 4.17037 14.0298 4.83341 14H4.98341C4.84636 14.3776 4.80232 14.7827 4.85502 15.1809C4.90773 15.5792 5.05562 15.9588 5.28618 16.2878C5.51674 16.6167 5.82318 16.8853 6.17954 17.0707C6.53591 17.2561 6.9317 17.3529 7.33342 17.3529C7.73513 17.3529 8.13092 17.2561 8.48729 17.0707C8.84365 16.8853 9.15009 16.6167 9.38065 16.2878C9.61121 15.9588 9.7591 15.5792 9.81181 15.1809C9.86451 14.7827 9.82047 14.3776 9.68341 14H11.6501C11.513 14.3776 11.469 14.7827 11.5217 15.1809C11.5744 15.5792 11.7223 15.9588 11.9528 16.2878C12.1834 16.6167 12.4898 16.8853 12.8462 17.0707C13.2026 17.2561 13.5984 17.3529 14.0001 17.3529C14.4018 17.3529 14.7976 17.2561 15.154 17.0707C15.5103 16.8853 15.8168 16.6167 16.0473 16.2878C16.2779 15.9588 16.4258 15.5792 16.4785 15.1809C16.5312 14.7827 16.4871 14.3776 16.3501 14H16.5001C16.7211 14 16.9331 13.9122 17.0893 13.7559C17.2456 13.5996 17.3334 13.3877 17.3334 13.1667C17.3334 12.9456 17.2456 12.7337 17.0893 12.5774C16.9331 12.4211 16.7211 12.3333 16.5001 12.3333ZM15.4334 3.99999L14.3417 8.36666C14.2961 8.55155 14.1885 8.71524 14.0369 8.83048C13.8853 8.94571 13.6988 9.00554 13.5084 8.99999H6.31675L5.06675 3.99999H15.4334ZM7.33342 15.6667C7.1686 15.6667 7.00748 15.6178 6.87044 15.5262C6.7334 15.4346 6.62659 15.3045 6.56352 15.1522C6.50044 15 6.48394 14.8324 6.51609 14.6707C6.54825 14.5091 6.62762 14.3606 6.74416 14.2441C6.8607 14.1275 7.00919 14.0482 7.17084 14.016C7.33249 13.9838 7.50005 14.0004 7.65232 14.0634C7.80459 14.1265 7.93474 14.2333 8.02631 14.3703C8.11787 14.5074 8.16675 14.6685 8.16675 14.8333C8.16675 15.0543 8.07895 15.2663 7.92267 15.4226C7.76639 15.5789 7.55443 15.6667 7.33342 15.6667ZM14.0001 15.6667C13.8353 15.6667 13.6741 15.6178 13.5371 15.5262C13.4001 15.4346 13.2933 15.3045 13.2302 15.1522C13.1671 15 13.1506 14.8324 13.1828 14.6707C13.2149 14.5091 13.2943 14.3606 13.4108 14.2441C13.5274 14.1275 13.6759 14.0482 13.8375 14.016C13.9992 13.9838 14.1667 14.0004 14.319 14.0634C14.4713 14.1265 14.6014 14.2333 14.693 14.3703C14.7845 14.5074 14.8334 14.6685 14.8334 14.8333C14.8334 15.0543 14.7456 15.2663 14.5893 15.4226C14.4331 15.5789 14.2211 15.6667 14.0001 15.6667Z" fill="#FFFFFF"/>
</svg>
