<svg width="30" height="26" viewBox="0 0 30 26" fill="none" xmlns="http://www.w3.org/2000/svg">
<path d="M0.333252 13.6666V20.3333C0.333252 20.6869 0.473728 21.0261 0.723776 21.2761C0.973825 21.5262 1.31296 21.6666 1.66659 21.6666H2.99992C2.99992 22.7275 3.42135 23.7449 4.17149 24.4951C4.92164 25.2452 5.93905 25.6666 6.99992 25.6666C8.06078 25.6666 9.0782 25.2452 9.82835 24.4951C10.5785 23.7449 10.9999 22.7275 10.9999 21.6666H18.9999C18.9999 22.7275 19.4213 23.7449 20.1715 24.4951C20.9216 25.2452 21.9391 25.6666 22.9999 25.6666C24.0608 25.6666 25.0782 25.2452 25.8283 24.4951C26.5785 23.7449 26.9999 22.7275 26.9999 21.6666H28.3333C28.6869 21.6666 29.026 21.5262 29.2761 21.2761C29.5261 21.0261 29.6666 20.6869 29.6666 20.3333V4.33331C29.6666 3.27245 29.2452 2.25503 28.495 1.50489C27.7449 0.75474 26.7274 0.333313 25.6666 0.333313H13.6666C12.6057 0.333313 11.5883 0.75474 10.8382 1.50489C10.088 2.25503 9.66658 3.27245 9.66658 4.33331V6.99998H6.99992C6.37894 6.99998 5.76649 7.14456 5.21106 7.42227C4.65564 7.69998 4.17251 8.10319 3.79992 8.59998L0.599919 12.8666C0.56092 12.9246 0.529551 12.9873 0.506585 13.0533L0.426585 13.2C0.36774 13.3487 0.336125 13.5068 0.333252 13.6666ZM21.6666 21.6666C21.6666 21.4029 21.7448 21.1451 21.8913 20.9259C22.0378 20.7066 22.246 20.5357 22.4897 20.4348C22.7333 20.3339 23.0014 20.3075 23.26 20.3589C23.5187 20.4104 23.7563 20.5374 23.9427 20.7238C24.1292 20.9103 24.2562 21.1479 24.3076 21.4065C24.3591 21.6652 24.3327 21.9333 24.2318 22.1769C24.1308 22.4205 23.9599 22.6288 23.7407 22.7753C23.5214 22.9218 23.2636 23 22.9999 23C22.6463 23 22.3072 22.8595 22.0571 22.6095C21.8071 22.3594 21.6666 22.0203 21.6666 21.6666ZM12.3333 4.33331C12.3333 3.97969 12.4737 3.64055 12.7238 3.3905C12.9738 3.14046 13.313 2.99998 13.6666 2.99998H25.6666C26.0202 2.99998 26.3593 3.14046 26.6094 3.3905C26.8594 3.64055 26.9999 3.97969 26.9999 4.33331V19H25.9599C25.585 18.5875 25.128 18.2579 24.6183 18.0324C24.1086 17.8069 23.5573 17.6904 22.9999 17.6904C22.4425 17.6904 21.8913 17.8069 21.3815 18.0324C20.8718 18.2579 20.4148 18.5875 20.0399 19H12.3333V4.33331ZM9.66658 12.3333H4.33325L5.93325 10.2C6.05745 10.0344 6.21849 9.89998 6.40363 9.80741C6.58877 9.71484 6.79292 9.66665 6.99992 9.66665H9.66658V12.3333ZM5.66658 21.6666C5.66658 21.4029 5.74478 21.1451 5.89129 20.9259C6.0378 20.7066 6.24604 20.5357 6.48967 20.4348C6.73331 20.3339 7.0014 20.3075 7.26004 20.3589C7.51868 20.4104 7.75626 20.5374 7.94273 20.7238C8.1292 20.9103 8.25619 21.1479 8.30763 21.4065C8.35908 21.6652 8.33267 21.9333 8.23176 22.1769C8.13084 22.4205 7.95994 22.6288 7.74068 22.7753C7.52141 22.9218 7.26363 23 6.99992 23C6.6463 23 6.30716 22.8595 6.05711 22.6095C5.80706 22.3594 5.66658 22.0203 5.66658 21.6666ZM2.99992 15H9.66658V18.7066C8.87969 18.0034 7.84676 17.6396 6.79284 17.6945C5.73892 17.7495 4.74942 18.2187 4.03992 19H2.99992V15Z" fill="#6B6B6B"/>
</svg>
